<svg viewBox="0 0 24 24" role="presentation" aria-hidden="true" focusable="false" style="height: 28px; width: 28px; display: block; fill: currentcolor;"><path d="m8 10.5005941c0-.82930697.67155309-1.5005941 1.5-1.5005941.8284469 0 1.5.67128713 1.5 1.5005941 0 .8281188-.6715531 1.4994059-1.5 1.4994059-.82844691 0-1.5-.6712871-1.5-1.4994059zm4.1667406-8.44681501c-.0992881-.07170545-.2338787-.07170545-.3331668 0l-8.41742741 5.00062819c-.45120941.32653562-.55049754.95644047-.2239499 1.4065301.19636987.27358389.50416308.41699481.8152659.41699481h1.46063878v10.83083331c0 .1610615.13017777.2912345.29234839.2912345h5.80394304c.1246618 0 .2250531-.1003876.2250531-.2250448v-4.6983621c0-.8108233.8803548-1.4683071 1.6912079-1.4683071s1.7485744.6574838 1.7485744 1.4683071v4.6983621c0 .1246572.1014945.2250448.2250531.2250448h2.786687c.1610674 0 .2923483-.130173.2923483-.2912345v-10.83083331l1.4804964-.00006898c.3033805 0 .6023481-.1499609.7943051-.41692583.3265477-.45008963.2261563-1.07999448-.2239499-1.4065301z"></path></svg>