<?xml version="1.0" encoding="UTF-8"?>
<svg display="block" version="1.1" viewBox="0 -33.3 433.81 99.9" xmlns="http://www.w3.org/2000/svg">
<path d="m46.509-33.316c-5 0-9.5008 2.2-12.801 6-1.5 1.8-2.5996 3.7-3.5996 5.5-0.8 1.6-1.6004 3.1992-2.4004 4.6992l-0.29883 0.59961c-7.7 15-15.2 30.201-22.1 45.201l-0.10156 0.19922c-0.7 1.6-1.4988 3.2996-2.2988 5.0996-0.5 1.1-1 2.2996-1.5 3.5996-1.3 3.7-1.7012 7.2008-1.2012 10.801 1.1 7.5 6.1 13.8 13 16.6 2.6 1.1 5.3016 1.5996 8.1016 1.5996 0.8 0 1.7996-0.0992 2.5996-0.19922 3.3-0.4 6.7-1.5004 10-3.4004 4.1-2.3 8.0004-5.6004 12.4-10.4 4.4 4.8 8.3984 8.1004 12.398 10.4 3.3 1.9 6.7 3.0004 10 3.4004 0.8 0.1 1.8016 0.19922 2.6016 0.19922 2.8 0 5.5996-0.49961 8.0996-1.5996 7-2.8 11.9-9.1996 13-16.6 0.8-3.5 0.39961-6.9992-0.90039-10.699-0.5-1.2-1-2.5016-1.5-3.6016-0.8-1.8-1.6008-3.4996-2.3008-5.0996l-0.09961-0.09961c-6.9-15-14.3-30.199-22.1-45.199l-0.30078-0.60156c-0.8-1.5-1.5984-3.0992-2.3984-4.6992-1-1.8-2.0016-3.7-3.6016-5.5-3.2-4-7.7992-6.1992-12.699-6.1992zm0.09961 6.5996c3.1 0 5.9 1.2992 8 3.6992 1.1 1.3 2.0008 2.8004 2.8008 4.4004 0.8 1.5 1.6004 3.0996 2.4004 4.5996l0.29883 0.59961c7.6 14.9 15 30.1 21.9 45v0.10156c0.8 1.6 1.5008 3.4 2.3008 5 0.5 1.2 0.99883 2.1992 1.2988 3.1992 0.8 2.6 1.1012 5.0992 0.70117 7.6992-0.7 5.2-4.2016 9.7012-9.1016 11.701-2.4 1-4.9996 1.3-7.5996 1-2.5-0.3-4.9996-1.0996-7.5996-2.5996-3.6-2-7.2004-5.1012-11.4-9.7012 6.6-8.1 10.6-15.5 12.1-22.1 0.7-3.1 0.8-5.9 0.5-8.5-0.4-2.5-1.2992-4.8008-2.6992-6.8008-3.1-4.5-8.2996-7.0996-14.1-7.0996s-11 2.6996-14.1 7.0996c-1.4 2-2.3012 4.3008-2.7012 6.8008-0.4 2.6-0.3 5.5 0.5 8.5 1.5 6.6 5.5996 14.099 12.1 22.199-4.1 4.6-7.7984 7.7012-11.398 9.7012-2.6 1.5-5.1016 2.2996-7.6016 2.5996-2.7 0.3-5.2996-0.1-7.5996-1-4.9-2-8.3996-6.4992-9.0996-11.699-0.3-2.5-0.099609-5.0008 0.90039-7.8008 0.3-1 0.79883-1.9992 1.2988-3.1992 0.7-1.6 1.5008-3.3 2.3008-5l0.09961-0.20117c6.9-14.9 14.3-30.1 22-44.9l0.30078-0.59961c0.8-1.5 1.6004-3.0996 2.4004-4.5996 0.8-1.6 1.6988-3.1004 2.7988-4.4004 2.1-2.4 4.9-3.6992 8-3.6992zm-0.19922 36.299c3.7 0 6.9988 1.6004 8.7988 4.4004 0.8 1.2 1.4016 2.6012 1.6016 4.2012 0.3 1.8 0.19922 3.8996-0.30078 6.0996-1.2 5.3-4.6996 11.7-10.1 18.6-5.4-6.8-8.8996-13.2-10.1-18.6-0.5-2.3-0.60078-4.2996-0.30078-6.0996 0.2-1.6 0.79961-3.0012 1.5996-4.2012 1.9-2.7 5.1008-4.4004 8.8008-4.4004z" color="#000000"  style="-inkscape-stroke:none"/><path d="m310.91 2.4831c2.9 0 4.4 0.5 4.4 0.5v8.9s-8-2.7-13 3v26.3h-9.6v-37.7h8.1c0.8 0 1.4 0.7 1.4 1.4v1.6c1.8-2.1 5.7-4 8.7-4z" color="#000000"  style="-inkscape-stroke:none"/><path d="m317.21-14.617v55.699h8.0996c0.8 0 1.4004-0.69844 1.4004-1.3984v-1.7012s3.0992 4.0996 9.6992 4.0996c10.9 0 19.4-8.3988 19.4-19.799 0.1-11.4-8.3988-19.801-19.299-19.801-6.6 0-9.7012 4-9.7012 4v-21.1zm17.699 26c6.4 0 11.301 4.0008 11.301 10.801s-4.9008 10.799-11.301 10.799c-3.7 0-6.5996-1.8996-8.0996-4.0996v-13.4c1.5-2 4.6996-4.0996 8.0996-4.0996z" color="#000000"  style="-inkscape-stroke:none"/><path d="m392.21 18.783v22.4h-9.6v-21.3c0-6.2-2-8.7-7.4-8.7-2.9 0-5.9 1.5-7.8 3.7v26.2h-9.6v-37.6h7.6c0.8 0 1.4 0.7 1.4 1.4v1.6c2.8-2.9 6.5-4 10.2-4 4.2 0 7.7 1.2 10.5 3.6 3.4 2.8 4.7 6.4 4.7 12.7z" color="#000000"  style="-inkscape-stroke:none"/><path d="m395.21-14.617v55.699h8.0996c0.8 0 1.4004-0.69844 1.4004-1.3984v-1.7012s3.0992 4.0996 9.6992 4.0996c10.9 0 19.4-8.3988 19.4-19.799s-8.4988-19.801-19.299-19.801c-6.6 0-9.7012 4-9.7012 4v-21.1zm17.699 26c6.4 0 11.301 4.0008 11.301 10.801s-4.9008 10.799-11.301 10.799c-3.7 0-6.5996-1.8996-8.0996-4.0996v-13.4c1.5-2 4.6996-4.0996 8.0996-4.0996z" color="#000000"  style="-inkscape-stroke:none"/><path d="m277.11 3.4831h9.6v37.6h-9.6z" color="#000000"  style="-inkscape-stroke:none"/><path d="m288.41-8.2169c0 3.6-2.9 6.5-6.5 6.5s-6.5-2.9-6.5-6.5 2.8-6.5 6.5-6.5c3.7 0.1 6.5 3 6.5 6.5z" color="#000000"  style="-inkscape-stroke:none"/>
<path d="m124.93 19.942c0-4.256 2.5387-7.616 6.8693-7.616 4.7787 0 6.7947 3.2107 6.7947 7.3173v21.429h9.9307v-23.147c0-8.064-4.1813-14.56-13.291-14.56-3.9573 0-8.3627 1.7173-10.603 5.5253v-4.5547h-9.632v36.736h9.9307z" color="#000000"  style="-inkscape-stroke:none"/><path d="m170.04 33.159c-4.8533 0-9.3333-3.584-9.3333-10.453 0-6.944 4.48-10.453 9.3333-10.453 4.8533 0 9.3333 3.5093 9.3333 10.453 0 6.944-4.48 10.453-9.3333 10.453zm0-29.941c-10.976 0-19.264 8.1387-19.264 19.488 0 11.275 8.288 19.488 19.264 19.488 10.976 0 19.264-8.2133 19.264-19.488 0-11.349-8.288-19.488-19.264-19.488z" color="#000000"  style="-inkscape-stroke:none"/><path d="m207.19-6.6388h-8.96v5.152c0 3.2853-1.792 5.824-5.6747 5.824h-1.8667v8.8107h6.6453v17.099c0 7.0933 4.48 11.349 11.648 11.349 2.912 0 4.704-0.52267 5.6-0.896v-8.2133c-0.52267 0.14933-1.8667 0.29867-3.0613 0.29867-2.8373 0-4.3307-1.0453-4.3307-4.256v-15.381h7.392v-8.8107h-7.392z" color="#000000"  style="-inkscape-stroke:none"/><path d="m263.41 41.073h11.2l-20.16-52.939h-11.947l-20.309 52.939h10.901l4.4053-12.096h21.504zm-15.157-41.515 7.3173 20.011h-14.635z" color="#000000" style="-inkscape-stroke:none"/></svg>
