<?xml version="1.0" encoding="UTF-8"?>
<svg display="block" version="1.1" viewBox="0 0 29.4 31.728" xmlns="http://www.w3.org/2000/svg">
<path d="m28.993 22.494c-0.15854-0.38643-0.30716-0.79267-0.4657-1.1395l-0.73322-1.6547-0.02973-0.02973c-2.1798-4.756-4.5083-9.5913-6.9755-14.347l-0.099085-0.19817c-0.24771-0.4657-0.49542-0.98093-0.75304-1.4565-0.31707-0.56478-0.62423-1.1692-1.1296-1.7439a5.2515 5.2515 0 0 0-8.1249 0c-0.4657 0.57469-0.81249 1.1791-1.1296 1.7439-0.24771 0.51524-0.49542 1.0206-0.75304 1.4863l-0.099084 0.19817c-2.4276 4.756-4.7957 9.5914-6.9755 14.347l-0.059451 0.05945c-0.21798 0.51524-0.4756 1.0503-0.72331 1.625-0.15853 0.3468-0.31707 0.72332-0.4756 1.1395a6.7377 6.7377 0 0 0 7.1341 9.1455 8.3033 8.3033 0 0 0 3.1509-1.0899c1.2881-0.72331 2.5266-1.7736 3.9138-3.2896 1.3872 1.516 2.6555 2.5663 3.9138 3.2995a8.3033 8.3033 0 0 0 3.9832 1.1395 6.7278 6.7278 0 0 0 6.6882-5.7766 5.8856 5.8856 0 0 0-0.25762-3.4679zm-14.228 1.6448c-1.7042-2.1799-2.814-4.1814-3.1905-5.8955a5.1524 5.1524 0 0 1-0.09908-1.9421c0.06936-0.50533 0.25762-0.95121 0.51524-1.3277 0.5945-0.86203 1.6349-1.3971 2.7744-1.3971a3.2698 3.2698 0 0 1 2.7744 1.3872c0.25762 0.39634 0.44588 0.83231 0.50533 1.3376 0.09909 0.57469 0.05945 1.2386-0.09908 1.9421-0.37652 1.6844-1.4863 3.7058-3.1806 5.8955zm12.623 1.4664a4.7164 4.7164 0 0 1-2.8734 3.7157c-0.75304 0.31707-1.5853 0.40624-2.3978 0.31707-0.79267-0.09908-1.5853-0.3567-2.3978-0.83231a15.497 15.497 0 0 1-3.5968-3.0716c2.0808-2.5762 3.3391-4.9245 3.8147-7.0152 0.22789-0.99084 0.25762-1.8826 0.15854-2.705a5.4794 5.4794 0 0 0-0.85212-2.1799 5.3109 5.3109 0 0 0-4.4489-2.2591c-1.8331 0-3.4679 0.85212-4.4588 2.2492a5.1326 5.1326 0 0 0-0.84222 2.1898c-0.12881 0.83231-0.099084 1.7538 0.15853 2.705 0.4756 2.0907 1.7637 4.4687 3.8147 7.035a14.199 14.199 0 0 1-3.5968 3.0914c-0.8224 0.4756-1.6052 0.72332-2.3978 0.8224a4.7164 4.7164 0 0 1-5.2713-4.0327c-0.099084-0.79267-0.029725-1.5853 0.28734-2.4771 0.099084-0.31707 0.24771-0.63414 0.40625-1.0107 0.21799-0.51524 0.4756-1.0503 0.72331-1.5853l0.039634-0.06936c2.1402-4.7263 4.4786-9.5517 6.9062-14.278l0.09908-0.19817c0.24771-0.4756 0.49542-0.98093 0.75304-1.4565 0.25762-0.50533 0.53506-0.99084 0.89176-1.3872a3.2896 3.2896 0 0 1 5.0434 0c0.34679 0.39634 0.63414 0.88185 0.89176 1.3872 0.24771 0.4756 0.49542 0.99084 0.75304 1.4565l0.09908 0.19817c2.4177 4.7263 4.756 9.5517 6.9359 14.278l0.02972 0.02973c0.25762 0.51524 0.4756 1.0899 0.72332 1.5853 0.15854 0.38643 0.31707 0.69359 0.41615 1.0206 0.18826 0.89176 0.28734 1.6844 0.18826 2.4771z" fill="#00a6de" stroke-width=".99084"/>
</svg>
