<svg viewBox="0 0 32 32" xmlns="http://www.w3.org/2000/svg" aria-hidden="true" role="presentation" focusable="false" style="display: block; height: 16px; width: 16px; fill: currentcolor;"><path d="M22 1a5 5 0 0 1 5 5v20a5 5 0 0 1-5 5H10a5 5 0 0 1-5-5V6a5 5 0 0 1 5-5zm-6 24a1.5 1.5 0 1 0 0 3 1.5 1.5 0 0 0 0-3zm5-5a1.5 1.5 0 1 0 0 3 1.5 1.5 0 0 0 0-3zm-5 0a1.5 1.5 0 1 0 0 3 1.5 1.5 0 0 0 0-3zm-5 0a1.5 1.5 0 1 0 0 3 1.5 1.5 0 0 0 0-3zm10-5a1.5 1.5 0 1 0 0 3 1.5 1.5 0 0 0 0-3zm-5 0a1.5 1.5 0 1 0 0 3 1.5 1.5 0 0 0 0-3zm-5 0a1.5 1.5 0 1 0 0 3 1.5 1.5 0 0 0 0-3zm10-5a1.5 1.5 0 1 0 0 3 1.5 1.5 0 0 0 0-3zm-5 0a1.5 1.5 0 1 0 0 3 1.5 1.5 0 0 0 0-3zm-5 0a1.5 1.5 0 1 0 0 3 1.5 1.5 0 0 0 0-3z"></path></svg>