<?xml version="1.0" encoding="UTF-8" standalone="no"?>
<svg
   viewBox="0 0 80.974998 118.685"
   version="1.1"
   id="svg925"
   width="80.974998"
   height="118.685"
   xmlns="http://www.w3.org/2000/svg"
   xmlnssvg="http://www.w3.org/2000/svg"
   xmlnsbx="https://boxy-svg.com">
  <defs
     id="defs929" />
  <path
     d="M 0.5,0.5 H 80.475 V 28.516 H 0.5 Z"
     id="path913" />
  <path
     d="M 80.975,0 V 29.016 H 0 V 0 Z M 1,28.016 H 79.975 V 1 H 1 Z"
     style="fill:none"
     id="path915" />
  <g
     transform="matrix(1.029096,0,0,1,-204.17247,-122.97715)"
     id="g919">
    <path
       d="m 237.657,-176.333 38.846,24.884 h -77.692 z"
       transform="scale(1,-1)"
       bxshape="triangle 198.811 -176.333 77.692 24.884 0.5 0 1@1e9ae3e7"
       id="path917" />
  </g>
  <path
     d="M 71.813,86.726 A 31.459,31.459 0 0 1 40.354,118.185 31.459,31.459 0 0 1 8.895,86.726 31.459,31.459 0 0 1 40.354,55.267 31.459,31.459 0 0 1 71.813,86.726 Z"
     id="path921" />
  <path
     d="m 72.313,86.726 c 0,8.789 -3.605,16.842 -9.361,22.598 -5.756,5.756 -13.809,9.361 -22.598,9.361 -8.789,0 -16.842,-3.605 -22.598,-9.361 C 12,103.568 8.395,95.515 8.395,86.726 c 0,-8.789 3.605,-16.842 9.361,-22.598 5.756,-5.756 13.809,-9.361 22.598,-9.361 8.789,0 16.842,3.605 22.598,9.361 5.756,5.756 9.361,13.809 9.361,22.598 z M 62.245,64.835 c -5.63,-5.63 -13.306,-9.068 -21.891,-9.068 -8.585,0 -16.261,3.438 -21.891,9.068 -5.63,5.63 -9.068,13.306 -9.068,21.891 0,8.585 3.438,16.261 9.068,21.891 5.63,5.63 13.306,9.068 21.891,9.068 8.585,0 16.261,-3.438 21.891,-9.068 5.63,-5.63 9.068,-13.306 9.068,-21.891 0,-8.585 -3.438,-16.261 -9.068,-21.891 z"
     style="fill:none"
     id="path923" />
</svg>
