<svg xmlns="http://www.w3.org/2000/svg" viewBox="0 0 48 48"><path fill="#ffba57" d="M44,22.5c0,0.828-0.672,1.5-1.5,1.5h-6.488c-0.602,0-1.145-0.355-1.379-0.91l-2.535-4.945	l-4.094,7.262l5.219,6.008c0.781,0.605,1.008,1.691,0.523,2.559l-5,9C28.383,43.629,27.699,44,26.996,44	c-0.324,0-0.66-0.082-0.969-0.254c-0.965-0.535-1.313-1.75-0.773-2.719l4.16-7.492l-5.668-5.078l-4.039,4.582	C19.348,33.637,18.699,34,18,34H9c-1.105,0-2-0.895-2-2s0.895-2,2-2h7.875l5.168-8.164L22,21.809l4.293-7.613L22.285,13	l-4.953,3.746c-0.691,0.461-1.621,0.277-2.078-0.414c-0.461-0.688-0.273-1.621,0.414-2.078l5.332-4	C21.246,10.09,21.535,10,21.832,10l6.387,0.785h0.012c0.27,0,0.539,0.074,0.77,0.215l4.77,2.715c0.117,0.066,0.215,0.152,0.301,0.25	c0.125,0.133,0.238,0.277,0.309,0.445L37,21h5.5C43.328,21,44,21.672,44,22.5z M35,4c-2.211,0-4,1.789-4,4c0,2.207,1.789,4,4,4	s4-1.793,4-4C39,5.789,37.211,4,35,4"></path><path fill="#2d4c5c" d="M22.043,21.836L16.875,30H9c-1.105,0-2,0.895-2,2s0.895,2,2,2h9c0.699,0,1.348-0.363,1.707-0.961	l4.039-4.582l1.268,1.136l1.958-4.797L22.043,21.836z"></path><path fill="#2196f3" d="M33.77,13.715L29,11c-0.23-0.141-0.5-0.215-0.77-0.215h-0.012L22,21.809l6,3.602l6.292-11.16	C34.167,14.028,33.992,13.848,33.77,13.715z"></path><path fill="#546e7a" d="M28,25.414l-6-3.605l1.012-1.793l-1.516,2.684c-0.973,1.621-0.473,3.699,1.094,4.723l6.824,6.113	l3.805-2.121l-5.215-6.008L28,25.414z"></path><path fill="#795548" d="M17.207,19.793l-5-5c-0.391-0.391-1.023-0.391-1.414,0l-3.5,3.5c-0.391,0.391-0.391,1.023,0,1.414	l5,5C12.488,24.902,12.744,25,13,25s0.512-0.098,0.707-0.293l3.5-3.5C17.598,20.816,17.598,20.184,17.207,19.793z"></path><path fill="#0288d1" d="M36.174,18.932l-2.852,1.601l-1.224-2.388l2.188-3.911c0,0,0.091,0.176,0.104,0.202	c0.071,0.144,0.196,0.494,0.196,0.494L36.174,18.932z"></path><polygon fill="#2196f3" points="24.11,10.28 23.016,13.218 26.601,14.303 28.23,10.785"></polygon><path fill="#546e7a" d="M33.223,31.414l-0.337-0.388l-4.433,1.648l0.961,0.861l-4.16,7.492	c-0.539,0.969-0.191,2.184,0.773,2.719C26.336,43.918,26.672,44,26.996,44c0.703,0,1.387-0.371,1.75-1.027l5-9	C34.23,33.105,34.004,32.02,33.223,31.414z"></path></svg>